<?xml version="1.0" encoding="UTF-8"?>
<!DOCTYPE svg PUBLIC "-//W3C//DTD SVG 1.1//EN" "http://www.w3.org/Graphics/SVG/1.1/DTD/svg11.dtd">
<!-- Creator: CorelDRAW X7 -->
<svg xmlns="http://www.w3.org/2000/svg" xml:space="preserve" width="93.0129mm" height="35.0153mm" version="1.1" style="shape-rendering:geometricPrecision; text-rendering:geometricPrecision; image-rendering:optimizeQuality; fill-rule:evenodd; clip-rule:evenodd"
viewBox="0 0 73031 27493"
 xmlns:xlink="http://www.w3.org/1999/xlink">
 <defs>
  <style type="text/css">
   <![CDATA[
    .fil1 {fill:#3489DB}
    .fil2 {fill:#3498DB}
    .fil0 {fill:#3598DB}
    .fil5 {fill:#4D4D4D}
    .fil3 {fill:#FFD600}
    .fil4 {fill:yellow}
   ]]>
  </style>
 </defs>
 <g id="Layer_x0020_1">
  <metadata id="CorelCorpID_0Corel-Layer"/>
  <path class="fil0" d="M4582 19683c-44,12 -88,23 -132,33 -1851,419 -3782,-1146 -4313,-3496 -500,-2209 415,-4326 2065,-4919 5683,-853 10485,-3934 14706,-8484 561,6266 1961,11467 3790,15824 -5617,-1203 -11009,-978 -16116,1042z"/>
  <path class="fil1" d="M28457 6317c-70,26 -182,74 -335,144 -32,19 -77,38 -134,57 -224,90 -393,320 -508,690 -32,108 -48,201 -48,278 0,261 115,491 345,689 230,198 476,297 737,297 83,0 154,-6 211,-19 358,-77 645,-93 862,-48 224,45 415,217 575,517 95,179 143,406 143,680 0,173 -19,374 -57,604 0,12 -10,83 -29,210 -70,-51 -159,-118 -268,-201 -396,-236 -891,-354 -1485,-354 -140,0 -255,3 -344,9 -600,45 -1108,268 -1523,671 -415,402 -623,900 -623,1494 0,887 374,1590 1121,2107 255,179 584,277 986,297 441,25 882,-39 1322,-192 504,-172 868,-415 1092,-728l96 -191c198,459 431,712 699,756 76,13 150,19 220,19 294,0 517,-124 670,-373 32,-51 48,-125 48,-220 0,-211 -92,-463 -277,-757 -160,-255 -240,-709 -240,-1360 0,-313 19,-664 58,-1053 121,-1252 156,-2037 105,-2356 -45,-281 -163,-575 -354,-882 -134,-223 -382,-429 -743,-617 -360,-189 -672,-283 -933,-283l-652 0c-306,-6 -552,32 -737,115zm-278 6628c-127,0 -246,-32 -354,-96 -224,-128 -316,-371 -278,-728 38,-409 319,-613 843,-613 306,0 517,163 632,488 38,109 57,202 57,278 0,204 -102,370 -306,498 -179,115 -377,173 -594,173z"/>
  <path class="fil1" d="M4582 19737c-43,12 -87,23 -132,33 -1669,378 -3405,-860 -4118,-2831l17769 -6397c683,3008 1573,5712 2597,8153 -5617,-1203 -11008,-979 -16116,1042z"/>
  <path class="fil1" d="M8015 27493l4158 -1643c54,3 -89,20 0,0 89,-20 227,-91 306,-178l87 -35 -10 -33 -35 17c100,-137 143,-316 102,-496 -74,-328 -396,-534 -719,-461 -322,73 -524,398 -450,725 18,79 50,151 93,213 -782,-352 -1526,-1449 -1843,-2853 -259,-1142 -176,-2222 162,-2937 3,26 7,52 13,79 74,328 396,534 718,461 323,-73 524,-398 450,-725 -70,-313 -366,-515 -672,-470 49,-36 100,-68 154,-96l-10 -33 -4204 951c1638,2466 2132,4973 1700,7514z"/>
  <path class="fil2" d="M18384 7943c1288,-308 2663,827 3071,2534 408,1707 -305,3341 -1593,3648l-1478 -6182z"/>
  <path class="fil3" d="M18384 7943c1288,-308 2663,827 3071,2534 408,1707 -305,3341 -1593,3648l-1478 -6182z"/>
  <path class="fil4" d="M18384 7943c1043,-249 2142,446 2739,1626l-2170 753 -569 -2379z"/>
  <path class="fil1" d="M40163 780c-246,-520 -515,-780 -808,-780 -70,0 -138,11 -202,32 -386,138 -632,477 -738,1019 -47,244 -70,785 -70,1624 0,1146 41,2908 123,5286 -732,-1019 -1417,-1529 -2055,-1529 -269,0 -535,96 -799,287 -714,520 -1071,1618 -1071,3295 0,298 15,648 44,1051 164,2303 1086,3519 2766,3646 1048,85 1791,-451 2230,-1608 322,-838 521,-2208 597,-4108l185 -4664c52,-595 79,-1126 79,-1593 0,-902 -94,-1555 -281,-1958zm-3539 10683c-217,-318 -325,-647 -325,-987 0,-255 56,-509 167,-764 146,-340 322,-510 527,-510 181,0 374,117 579,351 258,297 387,610 387,939 0,255 -82,525 -246,812 -205,350 -404,525 -597,525 -164,0 -328,-122 -492,-366z"/>
  <path class="fil1" d="M64000 7431c-78,-131 -194,-261 -349,-392 -411,-353 -852,-524 -1323,-514 -674,20 -1377,398 -2110,1133 -304,312 -557,876 -760,1691 -161,675 -262,1385 -304,2130 -42,775 -62,1464 -62,2069l0 1917c0,685 35,1591 107,2719 30,463 71,981 125,1555 18,192 86,383 206,574 160,252 342,378 545,378 48,0 95,-10 143,-31 149,-60 229,-100 241,-120 42,-71 108,-182 197,-333 143,-231 209,-770 197,-1615 -12,-826 -131,-2225 -358,-4199 548,202 1070,302 1565,302 327,0 569,-20 724,-60 196,-61 426,-196 688,-408 340,-272 635,-669 885,-1193 239,-493 358,-1258 358,-2295 0,-1420 -239,-2522 -715,-3308zm-1189 3519c0,362 -108,670 -322,921 -191,232 -400,348 -626,348 -179,0 -328,-141 -447,-423 -113,-252 -170,-534 -170,-846 0,-362 92,-659 277,-891 167,-221 361,-327 581,-317 471,30 707,433 707,1208z"/>
  <path class="fil1" d="M45920 6489c-1187,-57 -2024,176 -2509,699 -274,294 -476,655 -603,1083 -70,223 -150,635 -240,1235 -19,128 -28,287 -28,479 0,415 51,954 153,1618 108,722 233,1242 373,1562 186,421 495,766 929,1034 383,230 913,364 1590,402 626,32 1194,-83 1705,-345 543,-274 943,-678 1202,-1211 258,-533 388,-1097 388,-1691 0,-159 -7,-303 -19,-431 -103,-996 -176,-1615 -221,-1858 -249,-1353 -769,-2161 -1561,-2423 -230,-76 -616,-127 -1159,-153zm1044 4741c13,172 19,294 19,364 0,523 -166,894 -498,1111 -261,172 -526,258 -795,258 -153,0 -303,-28 -450,-86 -415,-159 -645,-587 -689,-1283 -32,-485 -54,-1086 -67,-1801 -7,-555 70,-951 230,-1187 191,-281 552,-418 1082,-412 396,6 683,233 862,680 102,268 175,661 220,1178 0,0 29,393 86,1178z"/>
  <path class="fil1" d="M53309 6317c-70,26 -182,74 -335,144 -32,19 -76,38 -134,57 -223,90 -393,320 -507,690 -32,108 -48,201 -48,278 0,261 115,491 344,689 230,198 476,297 738,297 83,0 153,-6 211,-19 357,-77 644,-93 862,-48 223,45 414,217 574,517 96,179 144,406 144,680 0,173 -19,374 -58,604 0,12 -9,83 -28,210 -71,-51 -160,-118 -269,-201 -395,-236 -890,-354 -1484,-354 -141,0 -255,3 -345,9 -600,45 -1108,268 -1523,671 -415,402 -622,900 -622,1494 0,887 373,1590 1120,2107 256,179 585,277 987,297 440,25 881,-39 1322,-192 504,-172 868,-415 1091,-728l96 -191c198,459 431,712 699,756 77,13 150,19 221,19 293,0 517,-124 670,-373 32,-51 48,-125 48,-220 0,-211 -93,-463 -278,-757 -160,-255 -239,-709 -239,-1360 0,-313 19,-664 57,-1053 121,-1252 156,-2037 105,-2356 -44,-281 -162,-575 -354,-882 -134,-223 -381,-429 -742,-617 -361,-189 -672,-283 -934,-283l-651 0c-307,-6 -552,32 -738,115zm-277 6628c-128,0 -246,-32 -355,-96 -223,-128 -316,-371 -277,-728 38,-409 319,-613 842,-613 307,0 517,163 632,488 39,109 58,202 58,278 0,204 -102,370 -307,498 -178,115 -376,173 -593,173z"/>
  <path class="fil1" d="M70072 6489c-1188,-57 -2024,176 -2509,699 -275,294 -476,655 -604,1083 -70,223 -150,635 -239,1235 -19,128 -29,287 -29,479 0,415 51,954 153,1618 109,722 233,1242 374,1562 185,421 495,766 929,1034 383,230 913,364 1590,402 625,32 1194,-83 1704,-345 543,-274 944,-678 1202,-1211 259,-533 388,-1097 388,-1691 0,-159 -6,-303 -19,-431 -102,-996 -176,-1615 -220,-1858 -249,-1353 -770,-2161 -1561,-2423 -230,-76 -617,-127 -1159,-153zm1044 4741c12,172 19,294 19,364 0,523 -166,894 -498,1111 -262,172 -527,258 -795,258 -153,0 -303,-28 -450,-86 -415,-159 -645,-587 -690,-1283 -32,-485 -54,-1086 -67,-1801 -6,-555 70,-951 230,-1187 192,-281 552,-418 1082,-412 396,6 683,233 862,680 102,268 176,661 220,1178 0,0 29,393 87,1178z"/>
  <path class="fil5" d="M23347 19202l-207 -98 -103 -98 -104 -197 0 -1574 104 -197 103 -98 207 -98 828 0 206 98 104 98 103 197 0 197 -413 0c0,-53 -21,-100 -62,-138 -41,-39 -89,-59 -145,-59l-414 0c-57,0 -106,20 -147,59 -40,38 -60,85 -60,138l0 1180c0,55 20,101 60,140 41,38 90,57 147,57l414 0c56,0 104,-19 145,-57 41,-39 62,-85 62,-140l0 -393 -414 0 0 -394 827 0 0 1377 -413 0 0 -196c0,55 -21,102 -62,140 -40,38 -88,56 -145,56l-621 0zm2690 -983c0,-53 -21,-100 -62,-138 -41,-40 -89,-59 -145,-59l-414 0c-57,0 -106,19 -147,59 -40,38 -60,85 -60,138l828 0zm-828 983l-207 -98 -103 -98 -104 -197 0 -787 104 -197 103 -98 207 -98 828 0 206 98 104 98 103 197 0 394c0,55 -20,102 -61,139 -40,38 -88,57 -146,57l-1034 0c0,55 20,101 60,140 41,38 90,57 147,57l1034 0 0 393 -1241 0zm2069 0l-207 -98 -104 -98 -103 -197 0 -787 -207 0 0 -393 207 0 0 -787 414 0 0 787 827 0 0 393 -827 0 0 590c0,55 20,101 60,140 40,38 90,57 147,57l827 0 0 393 -1034 0zm3517 787l-207 -98 -104 -98 -103 -197 0 -197 414 0c0,53 20,100 60,138 40,40 89,59 147,59l413 0c56,0 105,-19 146,-59 41,-38 61,-85 61,-138l0 -393c0,55 -20,102 -61,140 -40,38 -89,56 -146,56l-620 0 -207 -98 -104 -98 -103 -197 0 -1180 414 0 0 983c0,55 20,101 60,140 40,38 89,57 147,57l413 0c56,0 105,-19 146,-57 41,-39 61,-85 61,-140l0 -983 414 0 0 1967 -103 197 -104 98 -207 98 -827 0zm2482 -1180c56,0 105,-19 146,-57 41,-39 61,-85 61,-140l0 -393c0,-53 -20,-100 -61,-138 -41,-40 -90,-59 -146,-59l-413 0c-58,0 -107,19 -148,59 -39,38 -59,85 -59,138l0 393c0,55 20,101 59,140 41,38 90,57 148,57l413 0zm-620 393l-207 -98 -104 -98 -103 -197 0 -787 103 -197 104 -98 207 -98 827 0 207 98 103 98 104 197 0 787 -104 197 -103 98 -207 98 -827 0zm1862 0l-207 -98 -104 -98 -103 -197 0 -1180 414 0 0 983c0,55 19,101 59,140 41,38 90,57 147,57l414 0c56,0 105,-19 146,-57 41,-39 61,-85 61,-140l0 -983 414 0 0 1573 -414 0 0 -196c0,55 -20,102 -61,140 -40,38 -89,56 -146,56l-620 0zm1448 0l0 -1573 413 0 0 196c0,-54 20,-100 60,-138 40,-39 89,-58 147,-58l621 0 207 98 103 98 104 197 0 197 -414 0c0,-53 -20,-100 -62,-138 -40,-40 -89,-59 -145,-59l-414 0c-57,0 -106,19 -147,59 -40,38 -60,85 -60,138l0 983 -413 0zm4758 -393c56,0 104,-19 145,-57 41,-39 62,-85 62,-140l0 -393c0,-53 -21,-100 -62,-138 -41,-40 -89,-59 -145,-59l-414 0c-57,0 -106,19 -147,59 -40,38 -60,85 -60,138l0 393c0,55 20,101 60,140 41,38 90,57 147,57l414 0zm-1034 393l0 -2360 413 0 0 983c0,-54 20,-100 60,-138 40,-39 89,-58 147,-58l621 0 207 98 103 98 104 197 0 787 -104 197 -103 98 -207 98 -621 0c-58,0 -107,-18 -147,-56 -40,-38 -60,-85 -60,-140l0 196 -413 0zm3103 -983c0,-53 -21,-100 -62,-138 -41,-40 -89,-59 -145,-59l-414 0c-57,0 -106,19 -147,59 -40,38 -60,85 -60,138l828 0zm-828 983l-207 -98 -103 -98 -104 -197 0 -787 104 -197 103 -98 207 -98 828 0 206 98 104 98 103 197 0 394c0,55 -20,102 -61,139 -40,38 -88,57 -146,57l-1034 0c0,55 20,101 60,140 41,38 90,57 147,57l1034 0 0 393 -1241 0zm1862 0l-207 -98 -103 -98 -104 -197 0 -197 414 0c0,55 20,101 60,140 41,38 90,57 147,57l414 0c46,0 87,-13 122,-39l-1157 -551 0 -197 104 -197 103 -98 207 -98 828 0 206 98 104 98 103 197 0 197 -413 0c0,-53 -21,-100 -62,-138 -41,-40 -89,-59 -145,-59l-414 0c-48,0 -89,13 -124,40l1158 550 0 197 -103 197 -104 98 -206 98 -828 0zm2069 0l-207 -98 -104 -98 -103 -197 0 -787 -207 0 0 -393 207 0 0 -787 414 0 0 787 827 0 0 393 -827 0 0 590c0,55 20,101 60,140 41,38 90,57 147,57l827 0 0 393 -1034 0zm4137 -393c56,0 105,-19 146,-57 41,-39 61,-85 61,-140l0 -393c0,-53 -20,-100 -61,-138 -41,-40 -90,-59 -146,-59l-413 0c-57,0 -107,19 -147,59 -40,38 -60,85 -60,138l0 393c0,55 20,101 60,140 40,38 90,57 147,57l413 0zm-620 393l-207 -98 -104 -98 -103 -197 0 -787 103 -197 104 -98 207 -98 827 0 207 98 104 98 103 197 0 787 -103 197 -104 98 -207 98 -827 0zm1655 0l0 -1180 -207 0 0 -393 207 0 0 -394 103 -197 104 -98 207 -98 1034 0 0 393 -828 0c-57,0 -106,20 -147,59 -40,38 -59,85 -59,138l0 197 827 0 0 393 -827 0 0 1180 -414 0zm1862 0l0 -1180 -207 0 0 -393 207 0 0 -394 103 -197 104 -98 206 -98 1035 0 0 393 -828 0c-57,0 -106,20 -147,59 -40,38 -60,85 -60,138l0 197 828 0 0 393 -828 0 0 1180 -413 0zm2896 -983c0,-53 -20,-100 -61,-138 -41,-40 -90,-59 -146,-59l-414 0c-57,0 -106,19 -147,59 -40,38 -60,85 -60,138l828 0zm-828 983l-206 -98 -104 -98 -103 -197 0 -787 103 -197 104 -98 206 -98 828 0 207 98 103 98 104 197 0 394c0,55 -21,102 -62,139 -40,38 -88,57 -145,57l-1035 0c0,55 20,101 60,140 41,38 90,57 147,57l1035 0 0 393 -1242 0zm1449 0l0 -1573 413 0 0 196c0,-54 20,-100 60,-138 40,-39 89,-58 147,-58l621 0 207 98 103 98 104 197 0 197 -414 0c0,-53 -20,-100 -62,-138 -40,-40 -89,-59 -145,-59l-414 0c-57,0 -106,19 -147,59 -40,38 -60,85 -60,138l0 983 -413 0z"/>
 </g>
</svg>
